<svg xmlns="http://www.w3.org/2000/svg" xmlns:xlink="http://www.w3.org/1999/xlink" contentStyleType="text/css" data-diagram-type="DESCRIPTION" height="1776.6667px" preserveAspectRatio="none" style="width:2126px;height:1776px;background:#FFFFFF;" version="1.1" viewBox="0 0 2126 1776" width="2126.6667px" zoomAndPan="magnify"><defs/><g><!--cluster ? Local Machine (Windows 10)\n[Hyper-V Host]--><g class="cluster" data-entity="&#128187; Local Machine (Windows 10)\n[Hyper-V Host]" data-source-line="17" data-uid="ent0003" id="cluster_&#128187; Local Machine (Windows 10)\n[Hyper-V Host]"><rect fill="none" height="1699.35" rx="4.1667" ry="4.1667" style="stroke:#000000;stroke-width:1.6667;" width="931.6667" x="1185.4992" y="68"/><text fill="#000000" font-family="sans-serif" font-size="23.3333" font-weight="bold" lengthAdjust="spacing" textLength="397.1338" x="1452.7656" y="92.9919">&#128187; Local Machine (Windows 10)</text><text fill="#000000" font-family="sans-serif" font-size="23.3333" font-weight="bold" lengthAdjust="spacing" textLength="196.5674" x="1553.0488" y="120.1533">[Hyper-V Host]</text></g><!--cluster ?? Ubuntu 22.04 VM\nIP: 172.24.145.70\nUser: ubuntu--><g class="cluster" data-entity="&#128421;&#65039; Ubuntu 22.04 VM\nIP: 172.24.145.70\nUser: ubuntu" data-source-line="18" data-uid="ent0004" id="cluster_&#128421;&#65039; Ubuntu 22.04 VM\nIP: 172.24.145.70\nUser: ubuntu"><rect fill="#E6F2FF" height="1561.0167" rx="4.1667" ry="4.1667" style="stroke:#000000;stroke-width:1.6667;" width="851.6667" x="1225.4992" y="166.3333"/><text fill="#000000" font-family="sans-serif" font-size="23.3333" font-style="italic" lengthAdjust="spacing" textLength="82.9199" x="1609.8725" y="191.3252">&#171;local&#187;</text><text fill="#000000" font-family="sans-serif" font-size="23.3333" font-weight="bold" lengthAdjust="spacing" textLength="250.0928" x="1526.2861" y="218.4867">&#128421;&#65039; Ubuntu 22.04 VM</text><text fill="#000000" font-family="sans-serif" font-size="23.3333" font-weight="bold" lengthAdjust="spacing" textLength="232.1826" x="1535.2412" y="245.6481">IP: 172.24.145.70</text><text fill="#000000" font-family="sans-serif" font-size="23.3333" font-weight="bold" lengthAdjust="spacing" textLength="171.9238" x="1565.3706" y="272.8096">User: ubuntu</text></g><!--cluster ? Monitoring Services--><g class="cluster" data-entity="&#128295; Monitoring Services" data-source-line="20" data-uid="ent0005" id="cluster_&#128295; Monitoring Services"><rect fill="#E0F7FA" height="560.45" rx="4.1667" ry="4.1667" style="stroke:#000000;stroke-width:1.6667;" width="311.6667" x="1285.4992" y="319.6667"/><text fill="#000000" font-family="sans-serif" font-size="23.3333" font-style="italic" lengthAdjust="spacing" textLength="119.8454" x="1381.4098" y="344.6585">&#171;monitor&#187;</text><text fill="#000000" font-family="sans-serif" font-size="23.3333" font-weight="bold" lengthAdjust="spacing" textLength="285.0016" x="1298.8317" y="371.82">&#128295; Monitoring Services</text></g><!--cluster ?? Auto-Scaling Logic--><g class="cluster" data-entity="&#9881;&#65039; Auto-Scaling Logic" data-source-line="25" data-uid="ent0008" id="cluster_&#9881;&#65039; Auto-Scaling Logic"><rect fill="#F3E5F5" height="473.6333" rx="4.1667" ry="4.1667" style="stroke:#000000;stroke-width:1.6667;" width="771.6667" x="1265.4992" y="994.8833"/><text fill="#000000" font-family="sans-serif" font-size="23.3333" font-style="italic" lengthAdjust="spacing" textLength="112.1322" x="1595.2664" y="1019.8752">&#171;service&#187;</text><text fill="#000000" font-family="sans-serif" font-size="23.3333" font-weight="bold" lengthAdjust="spacing" textLength="273.8249" x="1514.4201" y="1047.0367">&#9881;&#65039; Auto-Scaling Logic</text></g><!--cluster ? AWS CLI Configured--><g class="cluster" data-entity="&#128272; AWS CLI Configured" data-source-line="30" data-uid="ent0011" id="cluster_&#128272; AWS CLI Configured"><rect fill="#F3E5F5" height="215.9833" rx="4.1667" ry="4.1667" style="stroke:#000000;stroke-width:1.6667;" width="380" x="1647.1658" y="319.6667"/><text fill="#000000" font-family="sans-serif" font-size="23.3333" font-style="italic" lengthAdjust="spacing" textLength="112.1322" x="1781.0998" y="344.6585">&#171;service&#187;</text><text fill="#000000" font-family="sans-serif" font-size="23.3333" font-weight="bold" lengthAdjust="spacing" textLength="284.9105" x="1694.7106" y="371.82">&#128272; AWS CLI Configured</text></g><!--cluster ?? AWS Cloud (us-east-1)--><g class="cluster" data-entity="&#9729;&#65039; AWS Cloud (us-east-1)" data-source-line="41" data-uid="ent0018" id="cluster_&#9729;&#65039; AWS Cloud (us-east-1)"><path d="M71.0122,110.5523 C97.9367,65.3451 140.6884,72.8706 157.5939,119.9517 C179.5341,86.4008 205.3387,78.1047 232.2088,114.7085 C257.0141,75.0057 287.4651,75.7619 308.1134,118.5342 C329.3339,87.2497 352.9705,87.4359 374.6641,118.0255 C389.2338,76.9483 425.9654,74.3157 450.0556,108.4868 C471.7922,77.8761 501.1301,67.7212 523.9094,107.391 C552.0269,69.114 582.3364,68.0534 604.7694,112.9194 C626.7928,77.2132 650.0714,71.1949 678.2229,106.5885 C702.8778,78.8047 727.1181,75.6682 747.6931,111.074 C772.036,71.547 800.0055,72.8216 822.4095,112.894 C841.3709,70.3162 875.9624,70.4658 898.8264,109.2275 C924.1853,70.2768 961.7234,83.4137 977.167,119.5696 C995.5106,82.4175 1027.6599,81.4354 1051.4768,113.7115 C1082.2024,77.8384 1106.8418,82.3524 1132.1658,119.6667 C1142.6694,118.7096 1145.1946,124.2777 1142.3537,133.2958 C1177.7554,155.371 1180.8398,186.2615 1149.8452,214.4648 C1182.1997,231.9389 1187.0986,266.0056 1152.5085,285.973 C1187.6429,313.5079 1188.8545,345.7234 1148.8013,369.9387 C1189.6186,392.3706 1185.9869,431.5428 1146.9784,452.2059 C1191.5418,478.9824 1193.4806,514.513 1145.148,539.338 C1175.7952,571.4557 1162.2598,609.5626 1120.4992,619.3833 C1129.3587,618.2297 1133.701,623.1086 1131.0602,631.7646 C1106.7735,669.0791 1080.4088,670.4862 1052.9928,635.1261 C1030.6065,670.5913 996.9731,672.1217 978.9383,630.9228 C955.7226,670.8575 928.6524,670.7917 900.3936,636.2408 C874.4238,666.6674 847.6391,668.2783 828.6995,629.009 C808.2843,666.5626 772.907,662.8747 750.4513,631.3193 C734.2067,669.1464 697.6785,674.3962 676.2116,636.4349 C657.3145,670.3014 628.3525,680.3231 603.7104,642.2226 C577.8265,673.7357 551.4999,680.8663 526.4797,641.2843 C504.3724,681.9143 473.8672,677.864 452.2573,640.809 C428.4064,679.0564 399.4728,671.0893 376.8511,639.4821 C352.2909,673.0972 313.1793,671.4713 297.7486,629.8796 C278.4414,665.2216 243.2028,668.0319 223.903,629.8721 C201.752,665.9513 177.4103,665.3627 155.7262,629.4301 C110.5803,674.6282 80.4105,667.6875 58.8325,607.7167 C61.7272,606.2949 63.6171,607.0199 64.03,610.4018 C18.9896,591.8797 18.5797,553.5864 58.521,529.2922 C20.8894,511.0562 18.7355,478.1445 56.4025,457.6809 C14.9728,427.5052 10,399.2897 55.7592,368.4853 C18.6791,339.8277 19.3775,308.0974 64.7752,288.7682 C31.044,261.8706 33.0315,233.1641 67.9158,208.9669 C23.2085,179.065 26.8667,135.6416 70.4992,108 C71.8097,108.5148 72.0529,109.5648 71.0122,110.5523" fill="none" style="stroke:#181818;stroke-width:1.6667;"/><text fill="#000000" font-family="sans-serif" font-size="23.3333" font-weight="bold" lengthAdjust="spacing" textLength="326.8148" x="432.0918" y="137.9919">&#9729;&#65039; AWS Cloud (us-east-1)</text></g><!--cluster ? EC2 Instance\nID: i-0056f2d889754f76c\nAMI: ami-084568db4383264d4--><g class="cluster" data-entity="&#128230; EC2 Instance\nID: i-0056f2d889754f76c\nAMI: ami-084568db4383264d4" data-source-line="42" data-uid="ent0019" id="cluster_&#128230; EC2 Instance\nID: i-0056f2d889754f76c\nAMI: ami-084568db4383264d4"><rect fill="#FFF3CD" height="426.3833" rx="4.1667" ry="4.1667" style="stroke:#000000;stroke-width:1.6667;" width="1020" x="85.4992" y="166.3333"/><text fill="#000000" font-family="sans-serif" font-size="23.3333" font-style="italic" lengthAdjust="spacing" textLength="74.0902" x="558.4541" y="191.3252">&#171;aws&#187;</text><text fill="#000000" font-family="sans-serif" font-size="23.3333" font-weight="bold" lengthAdjust="spacing" textLength="191.8962" x="499.5511" y="218.4867">&#128230; EC2 Instance</text><text fill="#000000" font-family="sans-serif" font-size="23.3333" font-weight="bold" lengthAdjust="spacing" textLength="325.083" x="432.9577" y="245.6481">ID: i-0056f2d889754f76c</text><text fill="#000000" font-family="sans-serif" font-size="23.3333" font-weight="bold" lengthAdjust="spacing" textLength="402.557" x="394.2207" y="272.8096">AMI: ami-084568db4383264d4</text></g><!--cluster ? Services on EC2--><g class="cluster" data-entity="&#129520; Services on EC2" data-source-line="44" data-uid="ent0020" id="cluster_&#129520; Services on EC2"><rect fill="#F3E5F5" height="215.9833" rx="4.1667" ry="4.1667" style="stroke:#000000;stroke-width:1.6667;" width="568.3333" x="125.4992" y="319.6667"/><text fill="#000000" font-family="sans-serif" font-size="23.3333" font-style="italic" lengthAdjust="spacing" textLength="112.1322" x="353.5998" y="344.6585">&#171;service&#187;</text><text fill="#000000" font-family="sans-serif" font-size="23.3333" font-weight="bold" lengthAdjust="spacing" textLength="231.2028" x="294.0644" y="371.82">&#129520; Services on EC2</text></g><!--entity AWS--><g class="entity" data-entity="AWS" data-source-line="37" data-uid="ent0016" id="entity_AWS"><ellipse cx="1522.1714" cy="1587.6833" fill="#F1F1F1" rx="13.3333" ry="13.3333" style="stroke:#181818;stroke-width:0.8333;"/><path d="M1522.1714,1601.0167 L1522.1714,1646.0167 M1500.5047,1614.35 L1543.838,1614.35 M1522.1714,1646.0167 L1500.5047,1671.0167 M1522.1714,1646.0167 L1543.838,1671.0167" fill="none" style="stroke:#181818;stroke-width:0.8333;"/><text fill="#000000" font-family="sans-serif" font-size="23.3333" lengthAdjust="spacing" textLength="53.8444" x="1495.2492" y="1695.1752">AWS</text></g><!--entity nodeexp--><g class="entity" data-entity="nodeexp" data-source-line="21" data-uid="ent0006" id="entity_nodeexp"><rect fill="#F1F1F1" height="104.3229" rx="4.1667" ry="4.1667" style="stroke:#181818;stroke-width:0.8333;" width="256.7285" x="1312.1325" y="404.6667"/><rect fill="#F1F1F1" height="16.6667" style="stroke:#181818;stroke-width:0.8333;" width="25" x="1535.5277" y="413"/><rect fill="#F1F1F1" height="3.3333" style="stroke:#181818;stroke-width:0.8333;" width="6.6667" x="1532.1944" y="416.3333"/><rect fill="#F1F1F1" height="3.3333" style="stroke:#181818;stroke-width:0.8333;" width="6.6667" x="1532.1944" y="423"/><text fill="#000000" font-family="sans-serif" font-size="23.3333" lengthAdjust="spacing" textLength="190.0618" x="1337.1325" y="459.6585">&#128994; Node Exporter</text><text fill="#000000" font-family="sans-serif" font-size="23.3333" lengthAdjust="spacing" textLength="121.748" x="1371.2894" y="486.82">Port: 9100</text></g><!--entity prom--><g class="entity" data-entity="prom" data-source-line="22" data-uid="ent0007" id="entity_prom"><rect fill="#F1F1F1" height="104.3229" rx="4.1667" ry="4.1667" style="stroke:#181818;stroke-width:0.8333;" width="228.348" x="1312.9992" y="749.1333"/><rect fill="#F1F1F1" height="16.6667" style="stroke:#181818;stroke-width:0.8333;" width="25" x="1508.0138" y="757.4667"/><rect fill="#F1F1F1" height="3.3333" style="stroke:#181818;stroke-width:0.8333;" width="6.6667" x="1504.6805" y="760.8"/><rect fill="#F1F1F1" height="3.3333" style="stroke:#181818;stroke-width:0.8333;" width="6.6667" x="1504.6805" y="767.4667"/><text fill="#000000" font-family="sans-serif" font-size="23.3333" lengthAdjust="spacing" textLength="161.6813" x="1337.9992" y="804.1252">&#128993; Prometheus</text><text fill="#000000" font-family="sans-serif" font-size="23.3333" lengthAdjust="spacing" textLength="121.748" x="1357.9658" y="831.2867">Port: 9090</text></g><!--entity monitor--><g class="entity" data-entity="monitor" data-source-line="26" data-uid="ent0009" id="entity_monitor"><rect fill="#F1F1F1" height="104.3229" rx="4.1667" ry="4.1667" style="stroke:#181818;stroke-width:0.8333;" width="306.7334" x="1388.7992" y="1079.8833"/><rect fill="#F1F1F1" height="16.6667" style="stroke:#181818;stroke-width:0.8333;" width="25" x="1662.1992" y="1088.2167"/><rect fill="#F1F1F1" height="3.3333" style="stroke:#181818;stroke-width:0.8333;" width="6.6667" x="1658.8659" y="1091.55"/><rect fill="#F1F1F1" height="3.3333" style="stroke:#181818;stroke-width:0.8333;" width="6.6667" x="1658.8659" y="1098.2167"/><text fill="#000000" font-family="sans-serif" font-size="23.3333" lengthAdjust="spacing" textLength="240.0667" x="1413.7992" y="1134.8752">&#128200; CPU Monitor Script</text><text fill="#000000" font-family="sans-serif" font-size="23.3333" lengthAdjust="spacing" textLength="197.3421" x="1435.1615" y="1162.0367">(Python + psutil)</text></g><!--entity scaler--><g class="entity" data-entity="scaler" data-source-line="27" data-uid="ent0010" id="entity_scaler"><rect fill="#F1F1F1" height="104.3229" rx="4.1667" ry="4.1667" style="stroke:#181818;stroke-width:0.8333;" width="340.8105" x="1380.0992" y="1337.5333"/><rect fill="#F1F1F1" height="16.6667" style="stroke:#181818;stroke-width:0.8333;" width="25" x="1687.5764" y="1345.8667"/><rect fill="#F1F1F1" height="3.3333" style="stroke:#181818;stroke-width:0.8333;" width="6.6667" x="1684.2431" y="1349.2"/><rect fill="#F1F1F1" height="3.3333" style="stroke:#181818;stroke-width:0.8333;" width="6.6667" x="1684.2431" y="1355.8667"/><text fill="#000000" font-family="sans-serif" font-size="23.3333" lengthAdjust="spacing" textLength="157.1696" x="1463.5863" y="1392.5252">&#128640; scale_up.sh</text><text fill="#000000" font-family="sans-serif" font-size="23.3333" lengthAdjust="spacing" textLength="274.1439" x="1405.0992" y="1419.6867">AWS EC2 Launch Script</text></g><!--entity IAM Authenticated CLI\nRegion: us-east-1--><g class="entity" data-entity="IAM Authenticated CLI\nRegion: us-east-1" data-source-line="31" data-uid="ent0012" id="entity_IAM Authenticated CLI\nRegion: us-east-1"><rect fill="#F1F1F1" height="104.3229" rx="4.1667" ry="4.1667" style="stroke:#181818;stroke-width:0.8333;" width="325.555" x="1674.3825" y="404.6667"/><rect fill="#F1F1F1" height="16.6667" style="stroke:#181818;stroke-width:0.8333;" width="25" x="1966.6042" y="413"/><rect fill="#F1F1F1" height="3.3333" style="stroke:#181818;stroke-width:0.8333;" width="6.6667" x="1963.2708" y="416.3333"/><rect fill="#F1F1F1" height="3.3333" style="stroke:#181818;stroke-width:0.8333;" width="6.6667" x="1963.2708" y="423"/><text fill="#000000" font-family="sans-serif" font-size="23.3333" lengthAdjust="spacing" textLength="258.8883" x="1699.3825" y="459.6585">IAM Authenticated CLI</text><text fill="#000000" font-family="sans-serif" font-size="23.3333" lengthAdjust="spacing" textLength="204.7933" x="1726.43" y="486.82">Region: us-east-1</text></g><g class="entity" data-entity="GMN23" data-source-line="50" data-uid="ent0024" id="entity_GMN23"><path d="M725.3825,347.6167 L725.3825,566.0542 L1078.9608,566.0542 L1078.9608,364.2833 L1062.2941,347.6167 L725.3825,347.6167" fill="#FEFFDD" style="stroke:#181818;stroke-width:0.8333;"/><path d="M1062.2941,347.6167 L1062.2941,364.2833 L1078.9608,364.2833 L1062.2941,347.6167" fill="#FEFFDD" style="stroke:#181818;stroke-width:1.6667;"/><text fill="#000000" font-family="sans-serif" font-size="21.6667" lengthAdjust="spacing" textLength="249.7591" x="769.7921" y="376.0615">Public IP: 3.85.228.183</text><text fill="#000000" font-family="sans-serif" font-size="21.6667" lengthAdjust="spacing" textLength="238.2275" x="775.5579" y="401.2828">Key Pair: my-key.pem</text><text fill="#000000" font-family="sans-serif" font-size="21.6667" lengthAdjust="spacing" textLength="243.2739" x="773.0347" y="426.5042">Security Group: my-sg</text><text fill="#000000" font-family="sans-serif" font-size="21.6667" lengthAdjust="spacing" textLength="127.0695" x="831.1369" y="451.7256">Ports Open:</text><text fill="#000000" font-family="sans-serif" font-size="21.6667" lengthAdjust="spacing" textLength="109.8674" x="839.738" y="476.9469">- 22 (SSH)</text><text fill="#000000" font-family="sans-serif" font-size="21.6667" lengthAdjust="spacing" textLength="121.6634" x="833.8399" y="502.1683">- 80 (Flask)</text><text fill="#000000" font-family="sans-serif" font-size="21.6667" lengthAdjust="spacing" textLength="318.5783" x="735.3825" y="527.3896">- 9090 (optional Prometheus)</text><text fill="#000000" font-family="sans-serif" font-size="21.6667" lengthAdjust="spacing" textLength="250.2352" x="769.5541" y="552.611">- 9100 (Node Exporter)</text></g><!--entity flask--><g class="entity" data-entity="flask" data-source-line="45" data-uid="ent0021" id="entity_flask"><rect fill="#F1F1F1" height="104.3229" rx="4.1667" ry="4.1667" style="stroke:#181818;stroke-width:0.8333;" width="200.9587" x="151.6825" y="404.6667"/><rect fill="#F1F1F1" height="16.6667" style="stroke:#181818;stroke-width:0.8333;" width="25" x="319.3078" y="413"/><rect fill="#F1F1F1" height="3.3333" style="stroke:#181818;stroke-width:0.8333;" width="6.6667" x="315.9745" y="416.3333"/><rect fill="#F1F1F1" height="3.3333" style="stroke:#181818;stroke-width:0.8333;" width="6.6667" x="315.9745" y="423"/><text fill="#000000" font-family="sans-serif" font-size="23.3333" lengthAdjust="spacing" textLength="134.292" x="176.6825" y="459.6585">&#128995; Flask App</text><text fill="#000000" font-family="sans-serif" font-size="23.3333" lengthAdjust="spacing" textLength="92.0573" x="197.7999" y="486.82">Port: 80</text></g><!--entity aws_exporter--><g class="entity" data-entity="aws_exporter" data-source-line="46" data-uid="ent0022" id="entity_aws_exporter"><rect fill="#F1F1F1" height="104.3229" rx="4.1667" ry="4.1667" style="stroke:#181818;stroke-width:0.8333;" width="256.7285" x="410.4658" y="404.6667"/><rect fill="#F1F1F1" height="16.6667" style="stroke:#181818;stroke-width:0.8333;" width="25" x="633.861" y="413"/><rect fill="#F1F1F1" height="3.3333" style="stroke:#181818;stroke-width:0.8333;" width="6.6667" x="630.5277" y="416.3333"/><rect fill="#F1F1F1" height="3.3333" style="stroke:#181818;stroke-width:0.8333;" width="6.6667" x="630.5277" y="423"/><text fill="#000000" font-family="sans-serif" font-size="23.3333" lengthAdjust="spacing" textLength="190.0618" x="435.4658" y="459.6585">&#128994; Node Exporter</text><text fill="#000000" font-family="sans-serif" font-size="23.3333" lengthAdjust="spacing" textLength="121.748" x="469.6227" y="486.82">Port: 9100</text></g><!--entity user--><g class="entity" data-entity="user" data-source-line="15" data-uid="ent0002" id="entity_user"><ellipse cx="250.5066" cy="751.8833" fill="#2F4F4F" rx="13.3333" ry="13.3333" style="stroke:#181818;stroke-width:0.8333;"/><path d="M250.5066,765.2167 L250.5066,810.2167 M228.8399,778.55 L272.1732,778.55 M250.5066,810.2167 L228.8399,835.2167 M250.5066,810.2167 L272.1732,835.2167" fill="none" style="stroke:#181818;stroke-width:0.8333;"/><text fill="#000000" font-family="sans-serif" font-size="23.3333" lengthAdjust="spacing" textLength="99.3148" x="200.8492" y="859.3752">DevUser</text></g><!--link nodeexp to prom--><g class="link" data-entity-1="nodeexp" data-entity-2="prom" data-source-line="34" data-uid="lnk13" id="link_nodeexp_prom"><path d="M1438.4992,509.5667 C1435.9825,574.0667 1432.0563,674.3743 1429.5397,738.7743" fill="none" id="nodeexp-to-prom" style="stroke:#181818;stroke-width:1.6667;"/><polygon fill="#181818" points="1429.1492,748.7667,1436.3965,734.0384,1429.4746,740.4397,1423.0733,733.5178,1429.1492,748.7667" style="stroke:#181818;stroke-width:1.6667;"/><text fill="#000000" font-family="sans-serif" font-size="21.6667" lengthAdjust="spacing" textLength="174.222" x="1433.8325" y="681.1615">Metrics Scraped</text></g><!--link prom to monitor--><g class="link" data-entity-1="prom" data-entity-2="monitor" data-source-line="35" data-uid="lnk14" id="link_prom_monitor"><path d="M1381.1325,853.7333 C1357.2158,886.5 1336.2992,929.9833 1353.8325,968.2167 C1374.7825,1013.9 1407.5409,1045.7536 1445.8909,1073.2703" fill="none" id="prom-to-monitor" style="stroke:#181818;stroke-width:1.6667;"/><polygon fill="#181818" points="1454.0158,1079.1,1445.715,1064.9388,1447.2451,1074.2419,1437.942,1075.772,1454.0158,1079.1" style="stroke:#181818;stroke-width:1.6667;"/><text fill="#000000" font-family="sans-serif" font-size="21.6667" lengthAdjust="spacing" textLength="189.0544" x="1401.4615" y="936.6615">Query CPU usage</text><text fill="#000000" font-family="sans-serif" font-size="21.6667" lengthAdjust="spacing" textLength="280.979" x="1355.4992" y="961.8828">(node_cpu_seconds_total)</text></g><!--link prom to monitor--><g class="link" data-entity-1="prom" data-entity-2="monitor" data-source-line="67" data-uid="lnk28" id="link_prom_monitor"><path d="M1541.9658,834.95 C1581.2658,852 1621.0325,877.45 1643.8325,914.8833 C1676.5325,968.5833 1641.189,1026.9911 1601.689,1071.6744" fill="none" id="prom-to-monitor-1" style="stroke:#181818;stroke-width:1.6667;"/><polygon fill="#181818" points="1595.0658,1079.1667,1609.9954,1072.3437,1600.5851,1072.9231,1600.0057,1063.5128,1595.0658,1079.1667" style="stroke:#181818;stroke-width:1.6667;"/><text fill="#000000" font-family="sans-serif" font-size="21.6667" lengthAdjust="spacing" textLength="214.4556" x="1657.1658" y="949.1615">Regular CPU polling</text></g><!--link monitor to scaler--><g class="link" data-entity-1="monitor" data-entity-2="scaler" data-source-line="36" data-uid="lnk15" id="link_monitor_scaler"><path d="M1402.9992,1184.8167 C1355.1825,1210.8167 1319.4658,1245.7833 1345.4992,1287.5333 C1358.0825,1307.7167 1367.6452,1318.5045 1387.7452,1331.5545" fill="none" id="monitor-to-scaler" style="stroke:#181818;stroke-width:1.6667;"/><polygon fill="#181818" points="1396.1325,1337,1387.1819,1323.2402,1389.1431,1332.4621,1379.9212,1334.4233,1396.1325,1337" style="stroke:#181818;stroke-width:1.6667;"/><text fill="#000000" font-family="sans-serif" font-size="21.6667" lengthAdjust="spacing" textLength="145.0439" x="1384.7704" y="1255.9782">If CPU &gt; 75%</text><text fill="#000000" font-family="sans-serif" font-size="21.6667" lengthAdjust="spacing" textLength="220.2531" x="1347.1658" y="1281.1995">Execute scale_up.sh</text></g><!--link monitor to scaler--><g class="link" data-entity-1="monitor" data-entity-2="scaler" data-source-line="68" data-uid="lnk29" id="link_monitor_scaler"><path d="M1562.5325,1184.55 C1567.8492,1200.2167 1572.8325,1217.6833 1575.4992,1234.2 C1581.0158,1268.3833 1577.2344,1297.1595 1569.6177,1327.0595" fill="none" id="monitor-to-scaler-1" style="stroke:#181818;stroke-width:1.6667;"/><polygon fill="#181818" points="1567.1492,1336.75,1577.3123,1323.8599,1569.2063,1328.6746,1564.3916,1320.5685,1567.1492,1336.75" style="stroke:#181818;stroke-width:1.6667;"/><text fill="#000000" font-family="sans-serif" font-size="21.6667" lengthAdjust="spacing" textLength="366.9157" x="1578.8325" y="1268.4782">CPU &gt; 75% &#8658; Trigger scale_up.sh</text></g><!--link scaler to AWS--><g class="link" data-entity-1="scaler" data-entity-2="AWS" data-source-line="37" data-uid="lnk17" id="link_scaler_AWS"><path d="M1404.1825,1442.5333 C1382.7992,1456.3333 1363.5992,1473.6167 1350.4992,1495.1833 C1310.7325,1560.6333 1426.9801,1606.0719 1484.9801,1624.3886" fill="none" id="scaler-to-AWS" style="stroke:#181818;stroke-width:1.6667;"/><polygon fill="#181818" points="1494.5158,1627.4,1482.2198,1616.5256,1486.5693,1624.8905,1478.2045,1629.24,1494.5158,1627.4" style="stroke:#181818;stroke-width:1.6667;"/><text fill="#000000" font-family="sans-serif" font-size="21.6667" lengthAdjust="spacing" textLength="264.3164" x="1352.1658" y="1516.9615">Launch EC2 via AWS CLI</text></g><!--link scaler to AWS--><g class="link" data-entity-1="scaler" data-entity-2="AWS" data-source-line="69" data-uid="lnk30" id="link_scaler_AWS"><path d="M1603.1158,1442.4833 C1621.2492,1466.3667 1634.6158,1495.6167 1623.8325,1523.5167 C1609.0658,1561.7167 1582.305,1588.6042 1557.5884,1608.7209" fill="none" id="scaler-to-AWS-1" style="stroke:#181818;stroke-width:1.6667;"/><polygon fill="#181818" points="1549.8325,1615.0333,1565.6746,1610.7353,1556.2957,1609.773,1557.258,1600.3941,1549.8325,1615.0333" style="stroke:#181818;stroke-width:1.6667;"/><text fill="#000000" font-family="sans-serif" font-size="21.6667" lengthAdjust="spacing" textLength="313.4261" x="1628.8325" y="1516.9615">Run `aws ec2 run-instances`</text></g><!--link flask to GMN23--><g class="link" data-entity-1="flask" data-entity-2="GMN23" data-source-line="50" data-uid="lnk25" id="link_flask_GMN23"><path d="M250.0992,403.95 C249.4658,301.8667 265.4825,83 409.6658,29.6667 C462.8158,10 611.5158,10 664.6658,29.6667 C680.6825,35.5833 683.2325,41.2833 693.8325,54.6667 C764.8825,144.3333 822.4658,261.9833 858.9492,346.85" fill="none" id="flask-GMN23" style="stroke:#181818;stroke-width:1.6667;stroke-dasharray:7.0,7.0;"/></g><!--link flask to user--><g class="link" data-entity-1="flask" data-entity-2="user" data-source-line="60" data-uid="lnk26" id="link_flask_user"><path d="M210.5325,509.35 C181.7992,547.9 146.0658,603.6167 130.4992,659.3833 C117.3992,706.3 153.806,741.4457 192.3227,766.7291" fill="none" id="flask-to-user" style="stroke:#181818;stroke-width:1.6667;"/><polygon fill="#181818" points="200.6825,772.2167,191.8012,758.4121,193.716,767.6437,184.4844,769.5585,200.6825,772.2167" style="stroke:#181818;stroke-width:1.6667;"/><text fill="#000000" font-family="sans-serif" font-size="21.6667" lengthAdjust="spacing" textLength="162.1932" x="132.1658" y="681.1615">Hello from EC2</text></g><!--link user to flask--><g class="link" data-entity-1="user" data-entity-2="flask" data-source-line="64" data-uid="lnk27" id="link_user_flask"><path d="M284.9658,737.3833 C292.0658,721.6333 298.4992,704.4333 302.1658,687.7167 C315.6325,626.45 298.5383,565.2246 279.805,518.758" fill="none" id="user-to-flask" style="stroke:#181818;stroke-width:1.6667;"/><polygon fill="#181818" points="276.0658,509.4833,275.4914,525.888,279.1818,517.2122,287.8576,520.9025,276.0658,509.4833" style="stroke:#181818;stroke-width:1.6667;"/><text fill="#000000" font-family="sans-serif" font-size="21.6667" lengthAdjust="spacing" textLength="292.5423" x="307.1658" y="681.1615">Access http://3.85.228.183</text></g><!--SRC=[fLLTRnj557tVNt7b2c4BhRjUVsRLH399jh4QWy5D-u1HEjaThqTPpwpc8uaLLO8dU0Er245V8a3GLnwH-3Vz0_0Jk3Ds_47TKWa_sFATSy_EFVUUk-gSyO98CeMqO51h1PvQHUYOc5m_f5UwcxECJodNaE0NbMkeH4mBmJ4wrBESWfdcuTgfcf1KN3AUmPZaYdhU-x2xkmi7TCmuXNsH2wbiP2r5qaGJdY7NjGVm8KdECoaCJntuthrS92JVsuCxXwquZEDj47AfB22Eu_h-mJQ0elA29TI1weVDkBaDD1MSQI7TeuAu7NSjICYKIWU0inmplAUUHnA4OKaN9yWBH86nltSEY3mVvaJJ-vBCF6zLLkdlcsT_mh6j0_eacLWboeyPHw4Kr8BAY7zsD2kez1_1aL3wyv8J0c23uVjV__hZ6pWvCrmR2CDgq817_H7l3IAejSDgsAZM6irgEnXnUwi8Z4EMO2NWjUTONsF-xYNqvwNRjWtdKYcRkLBaUfbgFyiHiEatFyD78gLmU5K8YQCouWFyZM2d5WGbgmx7KtfLl8NX9nX8CQLwGerQfWSxy_G2ZvQvJxVMyEh5ZrQShj727sAnjevZaR745h7g_LkAUFurx0zERdM0OI9PeKUyF9ZfYU3m0HJAQ9PNt8qMihoPxSKNeF0QzDGKLJKPyUxZ8HpkXt1C34yc2tP7vM3oFyh35dqBbcF_k8SMucEM6KdJTookr-rRPIRuXoKudQcb6V5FQSO4npbHFYLA-xNIjbiiUWS-pYhtzrmp888-rP8bobP22fekuUxOHzn28eH-OgYSEN6D8Xb5JItdQLAOKqKJmLDrgeKcUML9SfjhUURw84rlx3ZseDryRyGFhsXYD5rNUPc-IB7Pg5bqAxhL_uAHMnszUQ5OQf8Ba-8C_V2bco5xx2BbfJALhOPy_flZx765iGGBwnr4mFmWQBR6OThfxBIRZN6xbM3x-xq8o1JFEercgvEUDUgTUjXgf0tRmldoUfCvN_w-T2JW8E8JttccRtw1E2Vg7Bf5SUkgpjnJOnl_7vR6Ev_InU7siS7cI9PDD8ZnQqyRcBES9M1NLxtQQLR3i5EjTUfhY0Tq1WF2S8rDP_uvdLKBEbqx7cBt9TCpk8_xkt0WbQq_02-cuEE2ycWjwkFQXF9mU5JP27O2A3kTDiDs_q1P51fTWdjxjQ3-1KD9eBoXrWf0UUgaM0dZf72pwTuP4PIEQ9uB65lZsEQkvj81B7AU4q4tmI5GCD6wYExUtL1kyPQDSt49NIdjUyM-OxVO4MrlSYATcGgHsrNfRJNSqctmwgjdy12RcM5ytN2RHhFSXiCJ70sWIGZIS9yjlA6U_0C0]--></g></svg>